<svg
  version="1.1"
  xmlns="http://www.w3.org/2000/svg"
  x="0px"
  y="0px"
  width="16px"
  height="16px"
  viewBox="0 0 24 24"
>
  <path
    fill="#cd9575"
    data-folderColor="Base"
    d="M10,4H4C2.9,4,2,4.9,2,6v12c0,1.1,0.9,2,2,2h16c1.1,0,2-0.9,2-2V8c0-1.1-0.9-2-2-2h-8L10,4z"
  />
  <path
    fill="var(--folder_icon_light_color, #000)"
    data-folderIconColor="Base"
    d="M17.3,9.3c-3.4,0-6.2,2.8-6.2,6.2s2.8,6.2,6.2,6.2c3.4,0,6.2-2.8,6.2-6.2S20.7,9.3,17.3,9.3z M20.1,18.7
	c0,0.3-0.3,0.6-0.6,0.6h-4.4c-0.3,0-0.6-0.3-0.6-0.6v-1.3c0-0.3,0.3-0.6,0.6-0.6h4.4c0.3,0,0.6,0.3,0.6,0.6V18.7z"
  />
</svg>
