<svg
  viewBox="0 0 24 24"
  width="16px"
  height="16px"
  xml:space="preserve"
  xmlns="http://www.w3.org/2000/svg"
>
  <path
    fill="#5c6bc0"
    d="M10 4H4c-1.11 0-2 .89-2 2v12c0 1.097.903 2 2 2h16c1.097 0 2-.903 2-2V8a2 2 0 0 0-2-2h-8l-2-2z"
  />
  <g
    transform="scale(0.5) translate(16 16)"
    fill="#c5cae9"
  >
    <path
      d="M29.832,16.7,23.478,27.417A1.256,1.256,0,0,1,22.36,28H9.647a1.262,1.262,0,0,1-1.118-.59L2.173,16.71a1.256,1.256,0,0,1,0-1.272L8.527,4.676A1.344,1.344,0,0,1,9.647,4H22.356a1.344,1.344,0,0,1,1.118.678l6.354,10.786a1.2,1.2,0,0,1,0,1.238ZM24.57,20.9V11.286L16,6.466l-8.56,4.82V20.9L16,25.719Z"
    />
    <polygon
      points="21.802 19.188 16.055 22.423 10.313 19.188 10.313 12.718 16.055 9.482 21.802 12.718 21.802 19.188"
    />
  </g>
</svg>
