<svg
  fill="none"
  version="1.1"
  viewBox="0 0 24 24"
  xmlns="http://www.w3.org/2000/svg"
  width="16px"
  height="16px"
>
  <path
    fill="#80CBC4"
    d="M10 4H4c-1.11 0-2 .89-2 2v12c0 1.097.903 2 2 2h16c1.097 0 2-.903 2-2V8a2 2 0 0 0-2-2h-8l-2-2z"
    data-folderColor="MacOS"
  />
  <path
    fill="#546e7a"
    transform="scale(0.02) translate(640 640)"
    data-folderIconColor="MacOS"
    d="M0,511.9998474l127-0.0000305l88.5588074-149.6339722l88.6412048,149.6340027L431.3999939,512L279.0895386,255.052063L430.0764465-0.0001551l-126.9870605,0l-87.5193176,147.806839L128.0507507-0.0001593L2.4000001,0l149.7175903,255.055069L0,511.9998474z"
  />
</svg>
