<svg
  clip-rule="evenodd"
  fill-rule="evenodd"
  stroke-linejoin="round"
  stroke-miterlimit="1.4142"
  version="1.1"
  viewBox="0 0 24 24"
  width="16px"
  height="16px"
  xml:space="preserve"
  xmlns="http://www.w3.org/2000/svg"
>
  <path
    fill="#D14748"
    opacity="var(--folder_light_opacity, 0.6)"
    d="m10 4h-6c-1.11 0-2 0.89-2 2v12c0 1.097 0.903 2 2 2h16c1.097 0 2-0.903 2-2v-10c0-1.11-0.9-2-2-2h-8l-2-2z"
    fill-rule="nonzero"
    data-folderColor="Ruby"
  />
  <g transform="translate(8 8)">
    <path
      fill="var(--folder_icon_light_color, #000)"
      data-folderIconColor="Ruby"
      d="M13,6L8,11V4h3Zm3,0L8,14,0,6,4,2h8ZM8,12.5L14.5,6l-3-3h-7l-3,3Z"
    />
  </g>
</svg>
