<?xml version="1.0" encoding="UTF-8"?>
<!-- Generator: visioncortex VTracer 0.6.12 -->
<svg version="1.1" xmlns="http://www.w3.org/2000/svg" width="167" height="59">
<path d="M0 0 C0.33 0.33 0.66 0.66 1 1 C4.49310326 1.24689473 7.98542018 1.38435771 11.484375 1.5234375 C15.09654991 2.01308788 17.06351359 2.90411084 20 5 C20.66 4.01 21.32 3.02 22 2 C23.93945312 1.64355469 23.93945312 1.64355469 26.28125 1.671875 C27.12300781 1.67703125 27.96476562 1.6821875 28.83203125 1.6875 C29.27224609 1.6978125 29.27224609 1.6978125 31.5 1.75 C32.38042969 1.75515625 33.26085937 1.7603125 34.16796875 1.765625 C40.69108124 1.84554062 40.69108124 1.84554062 43 3 C44.66735511 2.67012759 46.33386652 2.33598824 48 2 C50.41530294 1.90875522 52.83297945 1.86994347 55.25 1.875 C56.49265625 1.87242188 57.7353125 1.86984375 59.015625 1.8671875 C62 2 62 2 63 3 C63.08713831 4.70772358 63.10700007 6.41898649 63.09765625 8.12890625 C63.09604492 8.64614258 63.09604492 8.64614258 63.08789062 11.26367188 C63.08370117 11.80797852 63.08370117 11.80797852 63.0625 14.5625 C63.05798828 15.65498047 63.05347656 16.74746094 63.04882812 17.87304688 C63.03699826 20.58208495 63.02051543 23.29101599 63 26 C65.90600261 27.25664978 67.79604584 28 71 28 C71.33 24.37 71.66 20.74 72 17 C70.35 16.67 68.7 16.34 67 16 C66.77865824 13.87631556 66.57329993 11.75095976 66.375 9.625 C66.25898437 8.44164062 66.14296875 7.25828125 66.0234375 6.0390625 C66.01957031 5.53761719 66.01957031 5.53761719 66 3 C68.89012175 0.10987825 71.99074405 0.50155671 75.875 0.3125 C76.59558594 0.26544922 77.31617187 0.21839844 78.05859375 0.16992188 C81.6157165 -0.02987968 84.57892434 0.09337954 88 1 C90.10523135 0.92019384 92.2095296 0.81352995 94.3125 0.6875 C99.88786188 0.63738439 102.7527592 1.3020704 106.73046875 5.19921875 C110.13150871 10.02346313 110.25851494 14.56622222 110.125 20.3125 C110.11597656 21.05306641 110.10695312 21.79363281 110.09765625 22.55664062 C110.07424213 24.37123467 110.03837615 26.18566071 110 28 C110.99 28.33 111.98 28.66 113 29 C113.94738023 31.84214068 114.13460559 33.67608391 114.125 36.625 C114.12757813 37.42164063 114.13015625 38.21828125 114.1328125 39.0390625 C114 41 114 41 113 42 C109.99387579 42.16189488 107.0087483 42.26019134 104 42.31640625 C103.0688588 42.33750458 102.13771759 42.35860291 101.17835999 42.38034058 C98.11899949 42.44743258 95.05957729 42.50619459 92 42.5625 C90.96422821 42.58168488 89.92845642 42.60086975 88.86129761 42.62063599 C84.63483496 42.697512 80.40836029 42.7723336 76.18174744 42.84049988 C70.5286659 42.93217976 64.8777739 43.04952263 59.22622681 43.20979309 C56.20225305 43.29070682 53.17820751 43.34696389 50.15356445 43.39596558 C48.77147805 43.4234177 47.38955475 43.461261 46.00805664 43.51004028 C34.28237942 43.91255763 34.28237942 43.91255763 29.74609375 40.28515625 C25.20502022 35.41711398 24.75228049 31.25299357 24.875 24.6875 C24.89304688 23.43324219 24.91109375 22.17898437 24.9296875 20.88671875 C24.95289063 19.93410156 24.97609375 18.98148438 25 18 C21.25 16 21.25 16 19 16 C18.401875 16.825 17.80375 17.65 17.1875 18.5 C15 21 15 21 12.5 21.375 C10.274772 21.0412158 8.15681655 20.63905675 6 20 C5.67 22.64 5.34 25.28 5 28 C5.4021875 27.9896875 5.4021875 27.9896875 7.4375 27.9375 C10 28 10 28 11 29 C11.09873816 30.99799572 11.12971799 32.99957158 11.125 35 C11.12628906 35.5465625 11.12628906 35.5465625 11.1328125 38.3125 C11 41 11 41 10 42 C8.08541718 42.09971786 6.16717683 42.13080589 4.25 42.1328125 C3.0846875 42.13410156 1.919375 42.13539062 0.71875 42.13671875 C-0.5084375 42.13285156 -1.735625 42.12898438 -3 42.125 C-3.61359375 42.12693359 -3.61359375 42.12693359 -6.71875 42.13671875 C-7.8840625 42.13542969 -9.049375 42.13414063 -10.25 42.1328125 C-11.32765625 42.13168457 -12.4053125 42.13055664 -13.515625 42.12939453 C-16 42 -16 42 -17 41 C-17.07244053 38.98035801 -17.08377188 36.95832876 -17.0625 34.9375 C-17.05347656 33.83277344 -17.04445313 32.72804687 -17.03515625 31.58984375 C-17.02355469 30.73519531 -17.01195313 29.88054688 -17 29 C-15.35 28.67 -13.7 28.34 -12 28 C-12 24.04 -12 20.08 -12 16 C-13.65 15.67 -15.3 15.34 -17 15 C-17.33 11.04 -17.66 7.08 -18 3 C-11.97115038 0.84683942 -6.42275224 -0.29873266 0 0 Z M42 18 C42.33 20.31 42.66 22.62 43 25 C43.99 24.67 44.98 24.34 46 24 C46.33 22.35 46.66 20.7 47 19 C45.35 18.67 43.7 18.34 42 18 Z M89 19 C87.16308743 22.78187881 86.84162374 24.94568308 88 29 C89.98 28.67 91.96 28.34 94 28 C93.67 25.36 93.34 22.72 93 20 C91.68 19.67 90.36 19.34 89 19 Z " fill="#0A0602" transform="translate(45,8)"/>
<path d="M0 0 C0.33 1.32 0.66 2.64 1 4 C1.804375 3.34 2.60875 2.68 3.4375 2 C6.83769225 -0.22937133 9.71556158 -0.70353435 13.75 -0.51953125 C17.75423199 0.40505704 20.50139341 2.80925863 23 6 C25.47133075 10.50222632 25.23378011 14.82116653 25.125 19.8125 C25.11597656 20.60076172 25.10695312 21.38902344 25.09765625 22.20117188 C25.07422504 24.13424666 25.03835838 26.0671638 25 28 C25.99 28 26.98 28 28 28 C28 30.97 28 33.94 28 37 C22.06 37 16.12 37 10 37 C10 34.03 10 31.06 10 28 C10.99 28 11.98 28 13 28 C12.88617347 26.04098546 12.75858875 24.0827662 12.625 22.125 C12.55539063 21.03445312 12.48578125 19.94390625 12.4140625 18.8203125 C12 16 12 16 10 14 C7.5 13.6875 7.5 13.6875 5 14 C2.81005752 17.28491373 2.64722661 18.83095639 2.375 22.6875 C2.30023438 23.68136719 2.22546875 24.67523438 2.1484375 25.69921875 C2.09945312 26.45847656 2.05046875 27.21773437 2 28 C3.32 28 4.64 28 6 28 C6 30.97 6 33.94 6 37 C-0.27 37 -6.54 37 -13 37 C-13.33 34.03 -13.66 31.06 -14 28 C-12.35 28 -10.7 28 -9 28 C-9 22.39 -9 16.78 -9 11 C-10.32 11 -11.64 11 -13 11 C-13.33 7.7 -13.66 4.4 -14 1 C-9.23692563 0.04738513 -4.8333472 -0.08333357 0 0 Z " fill="#FC9E34" transform="translate(128,11)"/>
<path d="M0 0 C0 8.25 0 16.5 0 25 C1.32 25 2.64 25 4 25 C4 28.96 4 32.92 4 37 C0.04 37 -3.92 37 -8 37 C-8.33 36.01 -8.66 35.02 -9 34 C-9.804375 34.495 -10.60875 34.99 -11.4375 35.5 C-15.82571666 37.34767017 -19.30455664 37.75732957 -24 37 C-28.45228436 34.77385782 -30.86733733 32.48981614 -33 28 C-34.17970494 24.41240416 -34.10005521 21.00552078 -34.0625 17.25 C-34.05347656 16.07953125 -34.04445313 14.9090625 -34.03515625 13.703125 C-34.02355469 12.81109375 -34.01195313 11.9190625 -34 11 C-34.99 11 -35.98 11 -37 11 C-37 7.7 -37 4.4 -37 1 C-31.72 1 -26.44 1 -21 1 C-20.93941406 2.33675781 -20.87882812 3.67351563 -20.81640625 5.05078125 C-20.73199313 6.80469821 -20.64734552 8.5586039 -20.5625 10.3125 C-20.52318359 11.19357422 -20.48386719 12.07464844 -20.44335938 12.98242188 C-20.40146484 13.82998047 -20.35957031 14.67753906 -20.31640625 15.55078125 C-20.27974854 16.33106689 -20.24309082 17.11135254 -20.20532227 17.9152832 C-20 20 -20 20 -19 23 C-17.02 23 -15.04 23 -13 23 C-12.67 19.37 -12.34 15.74 -12 12 C-13.65 12 -15.3 12 -17 12 C-17 8.37 -17 4.74 -17 1 C-11.11376326 0.14382011 -6.12321914 0 0 0 Z " fill="#FB9D33" transform="translate(106,12)"/>
<path d="M0 0 C0.33 1.32 0.66 2.64 1 4 C1.680625 3.505 2.36125 3.01 3.0625 2.5 C6.71831169 0.63320254 8.93308428 0.57190361 13 1 C16.98066095 2.57724302 18.60667274 3.41000911 21 7 C19.845 8.485 19.845 8.485 14 16 C12.68 15.34 11.36 14.68 10 14 C7.3125 14.25 7.3125 14.25 5 15 C3.78306124 17.43387753 3.68040104 19.41838846 3.4375 22.125 C3.35371094 23.03507812 3.26992188 23.94515625 3.18359375 24.8828125 C3.15330078 25.23214844 3.15330078 25.23214844 3 27 C5.31 27 7.62 27 10 27 C10 30.3 10 33.6 10 37 C2.41 37 -5.18 37 -13 37 C-13 33.7 -13 30.4 -13 27 C-11.68 27 -10.36 27 -9 27 C-9 21.72 -9 16.44 -9 11 C-10.65 10.67 -12.3 10.34 -14 10 C-14 7.36 -14 4.72 -14 2 C-9.07262981 0.02905192 -5.21979128 -0.1799928 0 0 Z " fill="#FA9E36" transform="translate(44,11)"/>
<path d="M0 0 C2.625 1.375 2.625 1.375 4 4 C4.61767847 8.37461691 4.88904885 12.29209038 2.8125 16.28125 C0.36536323 18.60181073 -1.10543874 18.53616891 -4.4375 18.5 C-7.77240031 18.35001771 -9.6976629 18.1546841 -12.6875 16.625 C-14.76644438 12.46711125 -14.70983897 8.54598999 -14 4 C-11.15535314 -1.43068946 -5.43812599 -0.8491426 0 0 Z " fill="#F59225" transform="translate(22,33)"/>
<path d="M0 0 C2.625 1.375 2.625 1.375 4 4 C4.61767847 8.37461691 4.88904885 12.29209038 2.8125 16.28125 C0.36536323 18.60181073 -1.10543874 18.53616891 -4.4375 18.5 C-7.77240031 18.35001771 -9.6976629 18.1546841 -12.6875 16.625 C-14.76644438 12.46711125 -14.70983897 8.54598999 -14 4 C-11.15535314 -1.43068946 -5.43812599 -0.8491426 0 0 Z M-12 6 C-12.61195145 9.6717087 -12.48706506 11.28813568 -10.375 14.375 C-7.33636094 16.45406883 -5.61550392 16.46155369 -2 16 C1 14 1 14 1.6875 12.1953125 C2.01267517 10.04102697 2.21461572 8.17191104 2 6 C-0.3848188 3.19433083 -1.95916225 2.20309029 -5.5625 1.5 C-8.88912957 2.18238555 -10.04078918 3.24259218 -12 6 Z " fill="#060300" transform="translate(22,33)"/>
</svg>
