<svg
  width="16"
  height="16"
  viewBox="0 0 18 16"
  fill="none"
  xmlns="http://www.w3.org/2000/svg"
>
  <path
    d="M11 2C11.5523 2 12 2.44772 12 3V9H4V6H6C7.10457 6 8 5.10457 8 4V2H11Z"
    fill="#FFF4EB"
  />
  <path
    d="M7 4C7 4.06893 6.99277 4.13617 6.97949 4.20117C6.88625 4.65686 6.48325 5 6 5H4.41406L7 2.41406V4Z"
    fill="#FFF4EB"
  />
  <path
    fill-rule="evenodd"
    clip-rule="evenodd"
    d="M11 1C12.1046 1 13 1.89543 13 3V9H12V3C12 2.44772 11.5523 2 11 2H8V4C8 5.10457 7.10457 6 6 6H4V9H3V5.41406C3.00004 5.1489 3.10547 4.89453 3.29297 4.70703L6.70703 1.29297C6.89453 1.10547 7.1489 1.00004 7.41406 1H11ZM4.41406 5H6C6.55228 5 7 4.55228 7 4V2.41406L4.41406 5Z"
    fill="#E66D17"
  />
  <path
    d="M1 10.0137L1.58203 13.2549L1.63867 13.2568L2.22656 10.0137H3.07812L3.66602 13.2568L3.72266 13.2549L4.30469 10.0137H5.28516L4.25781 16H3.33594L2.65234 12.2656L1.96875 16H1.04688L0.019531 10.0137H1Z"
    fill="#6C707E"
  />
  <path
    d="M8.12891 10C8.42689 10.0713 8.68002 10.1986 8.8877 10.3828C9.22659 10.678 9.3988 11.0772 9.4043 11.5801H8.37891C8.37888 11.3452 8.30234 11.1624 8.14941 11.0312C7.9964 10.8946 7.78063 10.8262 7.50195 10.8262C7.23416 10.8262 7.0265 10.889 6.87891 11.0146C6.73131 11.1404 6.65723 11.3183 6.65723 11.5479C6.6573 11.7553 6.71209 11.9326 6.82129 12.0801C6.93609 12.2222 7.10028 12.3237 7.31348 12.3838L8.02637 12.5811C8.50197 12.7013 8.86572 12.9169 9.11719 13.2285C9.36858 13.5346 9.49413 13.9145 9.49414 14.3682C9.49414 14.7071 9.41205 15.0081 9.24805 15.2705C9.08406 15.5273 8.85465 15.7271 8.55957 15.8691C8.44761 15.923 8.32807 15.9665 8.20117 16H6.82227C6.6912 15.9677 6.56721 15.9292 6.45215 15.877C6.15148 15.7403 5.91888 15.5464 5.75488 15.2949C5.59635 15.038 5.51426 14.737 5.50879 14.3926H6.53418C6.53418 14.6386 6.62194 14.8325 6.79688 14.9746C6.97727 15.1112 7.22026 15.1797 7.52637 15.1797C7.82153 15.1797 8.05086 15.1113 8.21484 14.9746C8.38428 14.8379 8.46973 14.6497 8.46973 14.4092C8.46972 14.2071 8.40916 14.0323 8.28906 13.8848C8.17434 13.7318 8.00751 13.6279 7.78906 13.5732L7.09961 13.3838C6.62975 13.2635 6.26662 13.0477 6.00977 12.7363C5.7583 12.4247 5.63184 12.0473 5.63184 11.6045C5.63188 11.2657 5.70831 10.9701 5.86133 10.7188C6.01439 10.4674 6.23103 10.2734 6.50977 10.1367C6.63338 10.0773 6.76697 10.0336 6.90918 10H8.12891Z"
    fill="#6C707E"
  />
  <path
    fill-rule="evenodd"
    clip-rule="evenodd"
    d="M11.8525 10.0137C12.2569 10.0137 12.6072 10.0902 12.9023 10.2432C13.203 10.3962 13.4356 10.6128 13.5996 10.8916C13.7635 11.1704 13.8457 11.5012 13.8457 11.8838V14.1221C13.8457 14.4992 13.7635 14.83 13.5996 15.1143C13.4356 15.3931 13.203 15.612 12.9023 15.7705C12.6072 15.9235 12.257 16 11.8525 16H10.0732V10.0137H11.8525ZM11.0986 15.0566H11.8525C12.1477 15.0566 12.3827 14.9745 12.5576 14.8105C12.7326 14.6411 12.8203 14.4118 12.8203 14.1221V11.8838C12.8203 11.5995 12.7326 11.3749 12.5576 11.2109C12.3827 11.0417 12.1475 10.957 11.8525 10.957H11.0986V15.0566Z"
    fill="#6C707E"
  />
  <path
    d="M14.5488 10.0137H15.5742V15.0566H29V16H14.5488V10.0137Z"
    fill="#6C707E"
  />
</svg>
