<svg
  width="21"
  height="21"
  viewBox="0 0 21 21"
  fill="none"
  xmlns="http://www.w3.org/2000/svg"
  transform="scale(0.8)"
>
  <path
    d="M16.0536 0.333313H4.9464C2.49072 0.333313 0.5 2.32403 0.5 4.77971V15.8869C0.5 18.3426 2.49072 20.3333 4.9464 20.3333H16.0536C18.5093 20.3333 20.5 18.3426 20.5 15.8869V4.77971C20.5 2.32403 18.5093 0.333313 16.0536 0.333313Z"
    fill="url(#paint0_linear_2036_75300)"
  />
  <path
    d="M5.56884 8.05768C9.21852 8.50583 11.8225 11.8187 11.3978 15.4683C11.3978 15.4801 11.3978 15.4947 11.3949 15.5064C11.3949 15.5181 11.3949 15.5269 11.389 15.5386C11.3128 16.142 11.1576 16.7161 10.9379 17.2522C9.48507 17.0735 8.19919 16.4437 7.20329 15.5152C7.27652 15.3365 7.34096 15.152 7.39661 14.9645C7.50792 14.6013 7.587 14.2205 7.6368 13.831C7.69538 13.3564 7.70124 12.8878 7.66023 12.4308C7.51378 10.7554 6.73756 9.22639 5.54834 8.11919C5.5542 8.09869 5.56299 8.08111 5.57177 8.06061L5.56884 8.05768Z"
    fill="url(#paint1_linear_2036_75300)"
  />
  <path
    d="M15.4334 12.6096C11.7837 12.1614 9.17974 8.84861 9.60446 5.19893C9.60446 5.18722 9.60446 5.17257 9.60739 5.16085C9.60739 5.14914 9.60739 5.14035 9.61325 5.12863C9.6894 4.52524 9.84465 3.95113 10.0643 3.4151C11.5172 3.59378 12.8031 4.22354 13.799 5.15207C13.7257 5.33074 13.6613 5.51528 13.6056 5.70274C13.4943 6.06595 13.4152 6.44673 13.3654 6.83631C13.3069 7.31082 13.301 7.77948 13.342 8.23642C13.4885 9.91188 14.2647 11.4409 15.4539 12.5481C15.448 12.5686 15.4393 12.5862 15.4305 12.6067L15.4334 12.6096Z"
    fill="url(#paint2_linear_2036_75300)"
  />
  <path
    d="M15.4334 12.6097C11.7837 12.1615 9.17974 8.84871 9.60446 5.19904C10.4158 6.6138 11.7339 7.71807 13.342 8.23946C13.7433 8.37127 14.1651 8.465 14.5986 8.51772C14.994 8.56459 15.3865 8.57923 15.7702 8.55873C16.0309 8.54409 16.2858 8.51479 16.5406 8.47379C17.2084 9.66887 17.516 11.0778 17.3403 12.5423C17.3403 12.554 17.3403 12.5628 17.3344 12.5745C16.7515 12.6712 16.1481 12.6888 15.533 12.6243C15.492 12.6185 15.4598 12.6156 15.4334 12.6126V12.6097Z"
    fill="white"
  />
  <path
    d="M5.56786 8.05774C9.21753 8.5059 11.8215 11.8187 11.3968 15.4684C10.5854 14.0536 9.26733 12.9494 7.65924 12.428C7.25796 12.2962 6.83616 12.2024 6.40265 12.1497C6.00722 12.1029 5.61472 12.0882 5.23101 12.1087C4.97032 12.1234 4.71548 12.1526 4.46065 12.1937C3.79281 10.9986 3.48526 9.58967 3.661 8.12511C3.661 8.1134 3.661 8.10461 3.66686 8.09289C4.24975 7.99623 4.85315 7.97866 5.46827 8.0431C5.50342 8.04603 5.53271 8.04896 5.56786 8.05481V8.05774Z"
    fill="white"
  />
  <defs>
    <linearGradient
      id="paint0_linear_2036_75300"
      x1="20.8134"
      y1="-0.542495"
      x2="2.98389"
      y2="18.2566"
      gradientUnits="userSpaceOnUse"
    >
      <stop
        offset="0.01"
        stop-color="#E9913E"
      />
      <stop
        offset="1"
        stop-color="#F20000"
      />
    </linearGradient>
    <linearGradient
      id="paint1_linear_2036_75300"
      x1="5.53077"
      y1="17.7618"
      x2="9.83071"
      y2="9.69212"
      gradientUnits="userSpaceOnUse"
    >
      <stop
        offset="0.19"
        stop-color="white"
      />
      <stop
        offset="0.4"
        stop-color="#FDFCFC"
        stop-opacity="0.99"
      />
      <stop
        offset="0.51"
        stop-color="#F9F4F5"
        stop-opacity="0.97"
      />
      <stop
        offset="0.6"
        stop-color="#F3E7E9"
        stop-opacity="0.93"
      />
      <stop
        offset="0.67"
        stop-color="#E9D4D7"
        stop-opacity="0.88"
      />
      <stop
        offset="0.74"
        stop-color="#DDBBC0"
        stop-opacity="0.81"
      />
      <stop
        offset="0.81"
        stop-color="#CE9CA4"
        stop-opacity="0.73"
      />
      <stop
        offset="0.87"
        stop-color="#BC7883"
        stop-opacity="0.63"
      />
      <stop
        offset="0.92"
        stop-color="#A84E5C"
        stop-opacity="0.51"
      />
      <stop
        offset="0.97"
        stop-color="#911F31"
        stop-opacity="0.38"
      />
      <stop
        offset="1"
        stop-color="#830317"
        stop-opacity="0.3"
      />
    </linearGradient>
    <linearGradient
      id="paint2_linear_2036_75300"
      x1="16.9214"
      y1="-2.97916"
      x2="10.4393"
      y2="14.0947"
      gradientUnits="userSpaceOnUse"
    >
      <stop
        offset="0.19"
        stop-color="white"
      />
      <stop
        offset="0.4"
        stop-color="#FDFCFC"
        stop-opacity="0.99"
      />
      <stop
        offset="0.51"
        stop-color="#F9F4F5"
        stop-opacity="0.97"
      />
      <stop
        offset="0.6"
        stop-color="#F3E7E9"
        stop-opacity="0.93"
      />
      <stop
        offset="0.67"
        stop-color="#E9D4D7"
        stop-opacity="0.88"
      />
      <stop
        offset="0.74"
        stop-color="#DDBBC0"
        stop-opacity="0.81"
      />
      <stop
        offset="0.81"
        stop-color="#CE9CA4"
        stop-opacity="0.73"
      />
      <stop
        offset="0.87"
        stop-color="#BC7883"
        stop-opacity="0.63"
      />
      <stop
        offset="0.92"
        stop-color="#A84E5C"
        stop-opacity="0.51"
      />
      <stop
        offset="0.97"
        stop-color="#911F31"
        stop-opacity="0.38"
      />
      <stop
        offset="1"
        stop-color="#830317"
        stop-opacity="0.3"
      />
    </linearGradient>
  </defs>
</svg>
