<svg
  width="16"
  height="16"
  viewBox="0 0 16 16"
  fill="none"
  xmlns="http://www.w3.org/2000/svg"
>
  <path
    d="M11 2C11.5523 2 12 2.44772 12 3V9H4V6H6C7.10457 6 8 5.10457 8 4V2H11Z"
    fill="#45322B"
  />
  <path
    d="M7 4C7 4.06893 6.99277 4.13617 6.97949 4.20117C6.88625 4.65686 6.48325 5 6 5H4.41406L7 2.41406V4Z"
    fill="#45322B"
  />
  <path
    fill-rule="evenodd"
    clip-rule="evenodd"
    d="M11 1C12.1046 1 13 1.89543 13 3V9H12V3C12 2.44772 11.5523 2 11 2H8V4C8 5.10457 7.10457 6 6 6H4V9H3V5.41406C3.00004 5.1489 3.10547 4.89453 3.29297 4.70703L6.70703 1.29297C6.89453 1.10547 7.1489 1.00004 7.41406 1H11ZM4.41406 5H6C6.55228 5 7 4.55228 7 4V2.41406L4.41406 5Z"
    fill="#C77D55"
  />
  <path
    d="M5.62891 10.0137H6.73535L7.625 12.8457L8.51465 10.0137H9.62109V16H8.59570V11.6895L7.625 14.6387H7.625L6.65430 11.6895V16H5.62891V10.0137Z"
    fill="#CED0D6"
  />
  <path
    d="M2.85547 11.5146C2.91005 11.6238 2.95925 11.7303 3.00293 11.834C3.04666 11.9324 3.0797 12.0098 3.10156 12.0645C3.11796 12.0098 3.14767 11.9324 3.19141 11.834C3.23509 11.7303 3.28428 11.6238 3.33887 11.5146L4.10156 10.0137H5.2168L3.65918 12.9082L5.31543 16H4.16699L3.32227 14.3438C3.26761 14.2344 3.21618 14.1273 3.16699 14.0234C3.12332 13.9197 3.09021 13.8374 3.06836 13.7773C3.04651 13.8374 3.01342 13.9197 2.96973 14.0234C2.92599 14.1273 2.87693 14.2344 2.82227 14.3438L1.96973 16H0.854492L2.51074 12.9336L0.953125 10.0137H2.10059L2.85547 11.5146Z"
    fill="#CED0D6"
  />
  <path
    d="M11.0732 10.0137H12.0986V15.0566H14.8457V16H11.0732V10.0137Z"
    fill="#CED0D6"
  />
</svg>
