<svg
  clip-rule="evenodd"
  fill-rule="evenodd"
  stroke-linejoin="round"
  stroke-miterlimit="1.4142"
  version="1.1"
  viewBox="0 0 24 24"
  xml:space="preserve"
  xmlns="http://www.w3.org/2000/svg"
  width="16px"
  height="16px"
>
  <path
    fill="#009688"
    opacity="var(--folder_light_opacity, 0.6)"
    data-folderColor="Projects"
    d="M20,18H4V8H20M20,6H12L10,4H4C2.89,4 2,4.89 2,6V18A2,2 0 0,0 4,20H20A2,2 0 0,0 22,18V8C22,6.89 21.1,6 20,6Z"
  />
  <path
    fill="var(--folder_icon_light_color, #000)"
    transform="scale(0.5) translate(24 24)"
    data-folderIconColor="Projects"
    d="M12,19A1,1 0 0,1 11,18A1,1 0 0,1 12,17A1,1 0 0,1 13,18A1,1 0 0,1 12,19M4,5H20V16H4M20,18A2,2 0 0,0 22,16V5C22,3.89 21.1,3 20,3H4C2.89,3 2,3.89 2,5V16A2,2 0 0,0 4,18H0A2,2 0 0,0 2,20H22A2,2 0 0,0 24,18H20Z"
  />
</svg>
