<svg
  clip-rule="evenodd"
  fill-rule="evenodd"
  stroke-linejoin="round"
  stroke-miterlimit="1.4142"
  version="1.1"
  width="16px"
  height="16px"
  viewBox="0 0 24 24"
  xmlns="http://www.w3.org/2000/svg"
>
  <path
    fill="#41b883"
    data-folderColor="VuePress"
    d="M20,18H4V8H20M20,6H12L10,4H4C2.89,4 2,4.89 2,6V18A2,2 0 0,0 4,20H20A2,2 0 0,0 22,18V8C22,6.89 21.1,6 20,6Z"
  />

  <g transform="translate(.31059 -.41355)">
    <path
      d="m14.924 9.1855c-0.82833 0-1.4997 0.6715-1.4997 1.5v9c0 0.8285 0.67137 1.5 1.4997 1.5h7.0006c0.82833 0 1.4997-0.6715 1.4997-1.5v-9c0-0.8285-0.67137-1.5-1.4997-1.5z"
      fill="#e8f5e9"
      stroke-width="1.2326"
      data-folderIconColor="VuePress"
    />
    <g transform="matrix(.34054 0 0 .34054 13.1 10.5)  scale(1.3)">
      <path
        d="m1.791 3.6914 10.209 17.619 10.209-17.533v-0.085938h-3.9688l-6.1816 10.615-6.1523-10.615z"
        fill="#41b883"
        data-folderColor="VuePress"
      />
      <path
        d="m5.9072 3.6914 6.1521 10.617 6.1809-10.617h-3.7228l-2.4337 4.1783-2.4226-4.1783z"
        fill="#35495e"
      />
    </g>
  </g>
</svg>
