<svg
  xmlns="http://www.w3.org/2000/svg"
  version="1.1"
  width="16px"
  height="16px"
  viewBox="0 0 24 24"
>
  <!-- Inner fill - will be automatically lightened by the service -->
  <path
    fill="#E8E9EF"
    d="M10,4H4C2.89,4 2,4.89 2,6V18A2,2 0 0,0 4,20H20A2,2 0 0,0 22,18V8C22,6.89 21.1,6 20,6H12L10,4Z"
    data-themed="true"
    opacity="0.2"
  />
  <!-- Outline - main theme color -->
  <path
    fill="none"
    stroke="#6D717F"
    stroke-width="1.5"
    d="M10,4H4C2.89,4 2,4.89 2,6V18A2,2 0 0,0 4,20H20A2,2 0 0,0 22,18V8C22,6.89 21.1,6 20,6H12L10,4Z"
    data-themed="true"
  />
</svg>
